<?xml version="1.0" standalone="no"?>
<!DOCTYPE svg PUBLIC "-//W3C//DTD SVG 20010904//EN"
 "http://www.w3.org/TR/2001/REC-SVG-20010904/DTD/svg10.dtd">
<svg version="1.0" xmlns="http://www.w3.org/2000/svg"
 width="1024.000000pt" height="955.000000pt" viewBox="0 0 1024.000000 955.000000"
 preserveAspectRatio="xMidYMid meet">

<g transform="translate(0.000000,955.000000) scale(0.100000,-0.100000)"
fill="#000000" stroke="none">
<path d="M2055 9544 c-506 -48 -883 -178 -1217 -419 -107 -77 -336 -306 -413
-413 -218 -303 -339 -625 -407 -1087 -17 -120 -18 -633 0 -775 57 -459 156
-858 324 -1305 195 -516 452 -1015 785 -1523 95 -146 112 -178 107 -200 -8
-34 -196 -747 -228 -867 -54 -202 -196 -743 -196 -749 0 -3 417 -6 926 -6
l926 0 106 -99 c59 -54 172 -155 252 -223 1092 -934 2293 -1566 3400 -1792
117 -24 198 -36 430 -68 131 -17 645 -17 770 0 325 46 541 109 785 227 490
237 837 642 1015 1184 l37 114 40 -69 c36 -61 97 -169 131 -229 6 -11 57 -107
113 -213 56 -106 103 -191 105 -190 4 4 14 574 17 974 l2 291 45 34 c65 49
330 317 330 334 0 13 -367 357 -487 457 -34 27 -53 51 -53 65 0 37 -49 291
-81 423 -86 353 -239 708 -378 880 l-36 45 -7 -45 c-3 -25 -7 -74 -7 -110 -1
-36 -4 -76 -8 -89 -5 -20 -9 -15 -29 37 -69 184 -335 738 -431 897 -16 28 -64
109 -106 180 l-77 131 26 94 c48 179 258 964 309 1155 7 28 58 219 113 425 55
206 112 418 126 470 14 52 41 155 60 228 20 74 36 136 36 138 0 3 -503 3
-1117 1 -1104 -3 -1120 -3 -1258 -25 -77 -13 -197 -37 -267 -54 l-126 -30
-180 143 c-884 708 -1865 1234 -2762 1482 -276 77 -458 114 -757 153 -111 15
-593 27 -688 18z m1135 -844 c649 -48 1388 -296 2195 -736 165 -89 580 -336
620 -368 l28 -22 -87 -58 c-92 -61 -244 -199 -306 -278 l-37 -46 -21 86 c-76
309 -316 513 -662 561 -48 7 -537 11 -1349 13 l-1274 3 -89 -335 c-48 -184
-99 -378 -113 -430 -14 -52 -56 -212 -94 -355 l-68 -260 -16 38 c-17 40 -74
197 -102 281 -22 68 -82 299 -95 365 -43 228 -54 518 -25 676 31 174 93 329
180 450 72 101 204 217 298 263 262 128 620 181 1017 152z m-2246 -332 c-23
-425 129 -942 432 -1470 84 -147 280 -446 398 -608 42 -58 76 -112 76 -119 0
-8 -50 -204 -111 -435 l-110 -421 47 -130 c51 -142 63 -169 70 -162 3 3 20 63
39 133 18 71 77 296 130 499 54 204 122 462 151 575 30 113 125 477 212 810
l159 605 1199 0 c1100 0 1205 -2 1273 -17 213 -50 332 -169 378 -378 21 -97
21 -328 0 -470 -41 -278 -409 -1716 -702 -2745 -172 -606 -200 -691 -274 -815
-221 -372 -586 -588 -1138 -674 -183 -29 -426 -36 -1261 -36 -780 0 -823 1
-818 18 3 9 85 319 181 687 97 369 190 723 207 787 l31 117 53 7 c29 3 83 3
121 -1 165 -16 291 -60 491 -175 29 -17 50 -25 47 -20 -4 6 -72 84 -152 173
-147 164 -347 399 -419 493 -21 28 -85 109 -140 180 -287 365 -599 887 -763
1274 -117 275 -220 635 -257 895 -23 165 -24 484 -1 620 49 292 139 521 285
724 54 74 160 201 168 201 3 0 1 -55 -2 -122z m7922 -725 c-3 -10 -55 -211
-116 -448 -61 -236 -126 -488 -145 -560 -91 -348 -110 -421 -145 -560 -37
-144 -91 -347 -108 -410 l-8 -30 -642 -3 c-353 -1 -642 1 -642 4 0 12 171 666
215 824 88 314 132 421 220 533 26 32 64 70 85 85 22 15 39 31 40 36 0 5 -52
7 -117 4 -133 -6 -231 -33 -341 -95 -130 -72 -266 -231 -346 -405 -52 -111
-87 -224 -181 -580 -47 -178 -105 -399 -131 -493 -25 -93 -59 -222 -76 -285
-16 -63 -45 -171 -64 -240 -18 -69 -60 -228 -94 -355 -261 -979 -368 -1333
-437 -1452 -27 -47 -108 -123 -129 -123 -8 0 -14 -4 -14 -10 0 -25 257 -4 375
31 149 44 270 138 347 268 40 70 110 273 188 546 28 99 53 188 56 198 5 16 -7
17 -158 17 -90 0 -169 4 -176 9 -11 6 16 120 130 546 l143 537 815 -7 c448 -4
816 -8 818 -10 9 -7 -305 -1172 -423 -1570 -131 -444 -502 -859 -936 -1046
-178 -77 -144 -74 -811 -72 l-597 2 -138 70 c-190 97 -431 235 -599 346 l-142
93 13 69 c46 238 492 1982 696 2718 228 824 263 918 415 1125 271 370 782 644
1305 699 46 4 484 9 972 10 842 1 888 0 883 -16z m-338 -2795 c207 -450 341
-908 378 -1296 l7 -72 -58 26 c-82 36 -303 108 -410 134 -49 12 -149 29 -221
39 l-131 16 57 210 c212 776 290 1067 290 1080 0 39 23 3 88 -137z m898 -1165
c78 -161 159 -444 200 -693 9 -58 20 -113 23 -122 3 -9 57 -55 120 -102 115
-86 321 -262 321 -274 0 -19 -165 -183 -239 -238 l-84 -62 -2 -409 c-1 -224
-5 -419 -8 -432 -7 -26 -17 -40 -17 -23 0 21 -129 278 -197 392 -85 143 -170
260 -188 260 -8 0 -17 -5 -20 -10 -13 -21 -163 -116 -271 -171 -124 -64 -241
-103 -358 -119 -82 -11 -206 -4 -206 11 0 5 41 53 91 107 50 53 123 140 162
192 39 52 83 111 97 130 73 98 155 258 200 391 l33 96 -105 134 c-57 74 -165
215 -239 314 -74 99 -175 229 -223 288 -48 60 -86 110 -84 112 2 2 42 -5 88
-15 160 -35 312 -95 548 -216 90 -46 167 -84 172 -84 19 0 83 344 101 541 14
152 12 152 85 2z m-1297 -166 c30 -45 185 -266 346 -492 160 -225 298 -420
305 -432 32 -51 -160 -291 -316 -394 -252 -168 -540 -241 -949 -241 -363 0
-728 64 -1150 200 l-120 38 135 13 c397 37 715 151 1000 359 93 68 279 253
347 346 122 165 234 382 305 589 18 54 35 97 38 96 3 0 29 -37 59 -82z m-3505
-689 c630 -467 1145 -795 1636 -1042 102 -52 219 -108 260 -126 41 -18 93 -40
115 -50 282 -124 644 -234 940 -286 182 -32 531 -44 693 -24 334 41 651 169
891 359 54 43 43 19 -26 -60 -266 -302 -566 -487 -952 -583 -163 -42 -295 -57
-521 -63 -236 -6 -402 7 -663 52 -727 126 -1662 512 -2562 1057 -193 118 -565
360 -565 368 0 3 25 18 56 33 190 93 391 268 513 445 12 17 25 32 28 32 3 0
73 -50 157 -112z"/>
<path d="M3477 7083 l-38 -4 41 -46 c83 -95 84 -90 -94 -748 -35 -132 -76
-283 -89 -335 -14 -52 -37 -138 -51 -190 -14 -52 -32 -120 -40 -150 -16 -62
-231 -868 -251 -945 -115 -426 -115 -427 -180 -665 -104 -379 -201 -683 -246
-772 -27 -52 -71 -101 -113 -123 -20 -11 -36 -23 -36 -27 0 -21 257 3 365 34
131 38 225 101 302 202 83 109 126 225 261 691 94 327 240 857 337 1228 14 53
36 139 49 190 206 782 322 1251 336 1356 20 148 -12 231 -107 278 -55 26 -63
27 -232 29 -97 1 -193 0 -214 -3z"/>
</g>
</svg>
