<?xml version="1.0" standalone="no"?>
<!DOCTYPE svg PUBLIC "-//W3C//DTD SVG 20010904//EN"
 "http://www.w3.org/TR/2001/REC-SVG-20010904/DTD/svg10.dtd">
<svg version="1.0" xmlns="http://www.w3.org/2000/svg"
 width="128.000000pt" height="128.000000pt" viewBox="0 0 128.000000 128.000000"
 preserveAspectRatio="xMidYMid meet">

<g transform="translate(0.000000,128.000000) scale(0.100000,-0.100000)"
fill="#000000" stroke="none">
<path d="M842 872 c-105 -38 -161 -120 -162 -235 0 -146 93 -239 240 -241 38
-1 91 7 128 18 l62 19 0 70 c0 60 2 70 20 74 11 3 20 12 20 19 0 11 -20 14
-90 14 -72 0 -90 -3 -90 -14 0 -10 14 -16 43 -18 l42 -3 3 -46 c4 -64 -19 -90
-86 -97 -73 -7 -117 5 -159 41 -50 44 -73 98 -73 178 0 55 4 72 29 112 19 28
46 54 70 67 72 36 194 20 221 -29 17 -33 30 -25 30 18 0 35 -3 40 -32 50 -62
22 -159 23 -216 3z"/>
<path d="M140 866 c0 -10 9 -16 25 -16 l25 0 0 -210 0 -210 -25 0 c-16 0 -25
-6 -25 -16 0 -14 18 -15 148 -12 127 3 152 6 188 25 134 71 176 261 82 369
-59 67 -94 78 -265 82 -136 4 -153 2 -153 -12z m303 -40 c67 -27 107 -102 107
-198 0 -58 -13 -95 -48 -131 -45 -48 -73 -57 -172 -57 l-90 0 0 200 0 200 85
0 c50 0 99 -6 118 -14z"/>
</g>
</svg>
